<?xml version="1.0" encoding="UTF-8" standalone="no"?>
<svg
   height="44"
   viewBox="0 0 13 44"
   width="13"
   version="1.1"
   id="svg8"
   sodipodi:docname="2.svg"
   xmlns:inkscape="http://www.inkscape.org/namespaces/inkscape"
   xmlns:sodipodi="http://sodipodi.sourceforge.net/DTD/sodipodi-0.dtd"
   xmlns="http://www.w3.org/2000/svg"
   xmlns:svg="http://www.w3.org/2000/svg">
  <defs
     id="defs12" />
  <sodipodi:namedview
     id="namedview10"
     pagecolor="#ffffff"
     bordercolor="#000000"
     borderopacity="0.25"
     inkscape:showpageshadow="2"
     inkscape:pageopacity="0.0"
     inkscape:pagecheckerboard="0"
     inkscape:deskcolor="#d1d1d1" />
  <g
     fill="none"
     fill-rule="evenodd"
     id="g6">
    <path
       d="m0 44h13v-44h-13z"
       id="path2" />
    <path
       d="m12 25.9c0 .6-.5 1.1-1.1 1.1h-8.8c-.6 0-1.1-.5-1.1-1.1v-7.9c0-.5.5-1 1.1-1h8.9c.6 0 1.1.5 1.1 1.1v7.8zm-5.5-11.9c1.2 0 2.1.9 2.3 2h-4.6c.2-1.1 1.1-2 2.3-2zm4.4 2h-1.1c-.2-1.7-1.6-3-3.3-3s-3.1 1.3-3.3 3h-1.1c-1.2 0-2.1.9-2.1 2.1v7.9c0 1.1.9 2 2.1 2h8.9c1.1 0 2.1-.9 2.1-2.1v-7.9c-.1-1.1-1-2-2.2-2z"
       fill="#fff"
       id="path4" />
  </g>
</svg>
